ply
format ascii 1.0
comment Created by Blender 2.78 (sub 0) - www.blender.org, source file: ''
element vertex 127
property float x
property float y
property float z
property float nx
property float ny
property float nz
property uchar red
property uchar green
property uchar blue
element face 78
property list uchar uint vertex_indices
end_header
0.191642 0.110644 0.000000 -0.500000 -0.866025 0.000000 105 45 9
0.000000 0.221289 0.328458 -0.500000 -0.866025 0.000000 105 45 9
0.000000 0.221289 0.000000 -0.500000 -0.866025 0.000000 105 45 9
0.000000 -0.221289 0.000000 -0.500000 0.866025 0.000000 105 45 9
0.191642 -0.110644 0.328458 -0.500000 0.866025 0.000000 105 45 9
0.191642 -0.110644 0.000000 -0.500000 0.866025 0.000000 105 45 9
-0.191642 0.110644 0.000000 1.000000 0.000000 -0.000000 99 57 11
-0.191642 -0.110644 0.328458 1.000000 0.000000 -0.000000 104 46 9
-0.191642 -0.110644 0.000000 1.000000 0.000000 -0.000000 105 45 9
0.191642 -0.110644 0.000000 -1.000000 -0.000000 0.000000 105 45 9
0.191642 0.110644 0.328458 -1.000000 -0.000000 0.000000 105 45 9
0.191642 0.110644 0.000000 -1.000000 -0.000000 0.000000 105 45 9
-0.191642 -0.110644 0.000000 0.500000 0.866025 -0.000000 105 45 9
0.000000 -0.221289 0.328458 0.500000 0.866025 -0.000000 105 45 9
0.000000 -0.221289 0.000000 0.500000 0.866025 -0.000000 105 45 9
0.000000 0.221289 0.000000 0.500000 -0.866025 0.000000 105 45 9
-0.191642 0.110644 0.328458 0.500000 -0.866025 0.000000 105 45 9
-0.191642 0.110644 0.000000 0.500000 -0.866025 0.000000 99 57 11
-0.191642 -0.110644 0.328458 -0.000000 0.000000 1.000000 104 46 9
-0.820397 0.473656 0.328458 -0.000000 0.000000 1.000000 93 75 16
-0.820397 -0.473657 0.328458 -0.000000 0.000000 1.000000 39 186 33
0.191642 -0.110644 0.328458 0.000000 0.000000 1.000000 105 45 9
0.820397 0.473656 0.328458 0.000000 0.000000 1.000000 39 186 33
0.191642 0.110644 0.328458 0.000000 0.000000 1.000000 105 45 9
0.000000 -0.947313 0.328458 -0.000000 -0.000000 1.000000 39 186 33
0.000000 -0.221289 0.328458 -0.000000 -0.000000 1.000000 105 45 9
-0.191642 0.110644 0.328458 -0.000000 0.000000 1.000000 105 45 9
-0.000000 0.947313 0.328458 -0.000000 0.000000 1.000000 39 186 33
0.000000 0.221289 0.328458 0.000000 0.000000 1.000000 105 45 9
0.820397 -0.473656 0.328458 0.000000 -0.000000 1.000000 39 186 33
-0.000000 0.947313 0.328458 0.461052 -0.798565 -0.386943 39 186 33
-0.492171 0.284155 1.110636 0.461052 -0.798565 -0.386943 39 186 33
-0.820397 0.473656 0.328458 0.461052 -0.798565 -0.386943 39 186 33
0.820397 0.473656 0.328458 -0.461052 -0.798565 -0.386943 39 186 33
0.000000 0.568310 1.110636 -0.461052 -0.798565 -0.386943 39 186 33
-0.000000 0.947313 0.328458 -0.461052 -0.798565 -0.386943 39 186 33
0.000000 -0.947313 0.328458 -0.461052 0.798565 -0.386943 39 186 33
0.492171 -0.284155 1.110636 -0.461052 0.798565 -0.386943 39 186 33
0.820397 -0.473656 0.328458 -0.461052 0.798565 -0.386943 39 186 33
-0.820397 0.473656 0.328458 0.922104 0.000000 -0.386943 39 186 33
-0.492171 -0.284155 1.110636 0.922104 0.000000 -0.386943 39 186 33
-0.820397 -0.473657 0.328458 0.922104 0.000000 -0.386943 39 186 33
0.820397 -0.473656 0.328458 -0.922104 0.000000 -0.386943 39 186 33
0.492171 0.284155 1.110636 -0.922104 0.000000 -0.386943 39 186 33
0.820397 0.473656 0.328458 -0.922104 0.000000 -0.386943 39 186 33
0.000000 -0.947313 0.328458 0.461052 0.798565 -0.386943 39 186 33
-0.492171 -0.284155 1.110636 0.461052 0.798565 -0.386943 39 186 33
0.000000 -0.568310 1.110636 0.461052 0.798565 -0.386943 39 186 33
0.492171 -0.284155 1.110636 -0.000000 0.000000 1.000000 39 186 33
0.691261 0.399100 1.110636 -0.000000 0.000000 1.000000 39 186 33
0.492171 0.284155 1.110636 -0.000000 0.000000 1.000000 39 186 33
-0.492171 -0.284155 1.110636 0.000000 0.000000 1.000000 39 186 33
0.000000 -0.798200 1.110636 0.000000 0.000000 1.000000 39 186 33
0.000000 -0.568310 1.110636 0.000000 0.000000 1.000000 39 186 33
0.000000 0.568310 1.110636 0.000000 -0.000000 1.000000 39 186 33
-0.691261 0.399100 1.110636 0.000000 -0.000000 1.000000 40 186 34
-0.492171 0.284155 1.110636 0.000000 -0.000000 1.000000 39 186 33
-0.000000 0.798200 1.110636 -0.000000 -0.000000 1.000000 39 186 33
0.691261 -0.399100 1.110636 0.000000 0.000000 1.000000 39 186 33
-0.691261 -0.399100 1.110636 -0.000000 0.000000 1.000000 39 186 33
-0.000000 0.798200 1.110636 -0.438072 -0.758763 -0.482050 39 186 33
0.311211 0.179678 1.801391 -0.438072 -0.758763 -0.482050 39 186 33
0.000000 0.359356 1.801391 -0.438072 -0.758763 -0.482050 39 186 33
0.000000 -0.798200 1.110636 -0.438072 0.758763 -0.482050 39 186 33
0.311211 -0.179678 1.801391 -0.438072 0.758763 -0.482050 39 186 33
0.691261 -0.399100 1.110636 -0.438072 0.758763 -0.482050 39 186 33
-0.691261 0.399100 1.110636 0.876144 0.000000 -0.482050 39 186 33
-0.311211 -0.179678 1.801391 0.876144 0.000000 -0.482050 39 186 33
-0.691261 -0.399100 1.110636 0.876144 0.000000 -0.482050 39 186 33
0.691261 -0.399100 1.110636 -0.876144 0.000000 -0.482050 39 186 33
0.311211 0.179678 1.801391 -0.876144 0.000000 -0.482050 39 186 33
0.691261 0.399100 1.110636 -0.876144 0.000000 -0.482050 39 186 33
0.000000 -0.798200 1.110636 0.438072 0.758763 -0.482050 39 186 33
-0.311211 -0.179678 1.801391 0.438072 0.758763 -0.482050 39 186 33
0.000000 -0.359356 1.801391 0.438072 0.758763 -0.482050 39 186 33
-0.000000 0.798200 1.110636 0.438072 -0.758763 -0.482050 39 186 33
-0.311211 0.179678 1.801391 0.438072 -0.758763 -0.482050 39 186 33
-0.691261 0.399100 1.110636 0.438072 -0.758763 -0.482050 39 186 33
0.311211 -0.179678 1.801391 -0.000000 0.000000 1.000000 39 186 33
0.444846 0.256832 1.801391 -0.000000 0.000000 1.000000 39 186 33
0.311211 0.179678 1.801391 -0.000000 0.000000 1.000000 39 186 33
-0.311211 -0.179678 1.801391 0.000000 0.000000 1.000000 39 186 33
0.000000 -0.513664 1.801391 0.000000 0.000000 1.000000 106 208 102
0.000000 -0.359356 1.801391 0.000000 0.000000 1.000000 39 186 33
0.000000 0.359356 1.801391 0.000000 -0.000000 1.000000 39 186 33
-0.444846 0.256832 1.801391 0.000000 -0.000000 1.000000 39 186 33
-0.311211 0.179678 1.801391 0.000000 -0.000000 1.000000 39 186 33
0.000000 0.513664 1.801391 0.000000 0.000000 1.000000 39 186 33
0.444846 -0.256832 1.801391 0.000000 0.000000 1.000000 39 186 33
-0.444846 -0.256832 1.801391 -0.000000 0.000000 1.000000 39 186 33
0.000000 0.513664 1.801391 -0.411601 -0.712913 -0.567749 39 186 33
0.444846 0.256832 1.801391 -0.411601 -0.712913 -0.567749 39 186 33
0.000000 -0.000000 2.446391 -0.411601 -0.712913 -0.567749 39 186 33
0.444846 -0.256832 1.801391 -0.411601 0.712913 -0.567749 39 186 33
0.000000 -0.513664 1.801391 -0.411601 0.712913 -0.567749 39 186 33
0.000000 -0.000000 2.446391 -0.411601 0.712913 -0.567749 40 186 34
-0.444846 -0.256832 1.801391 0.823201 0.000000 -0.567749 39 186 33
-0.444846 0.256832 1.801391 0.823201 0.000000 -0.567749 39 186 33
0.000000 -0.000000 2.446391 0.823201 0.000000 -0.567749 39 186 33
0.444846 0.256832 1.801391 -0.823202 0.000000 -0.567749 39 186 33
0.444846 -0.256832 1.801391 -0.823202 0.000000 -0.567749 39 186 33
0.000000 -0.000000 2.446391 -0.823202 0.000000 -0.567749 40 186 34
0.000000 -0.513664 1.801391 0.411601 0.712913 -0.567749 39 186 33
-0.444846 -0.256832 1.801391 0.411601 0.712913 -0.567749 39 186 33
0.000000 -0.000000 2.446391 0.411601 0.712913 -0.567749 39 186 33
-0.444846 0.256832 1.801391 0.411601 -0.712913 -0.567749 39 186 33
0.000000 0.513664 1.801391 0.411601 -0.712913 -0.567749 39 186 33
0.000000 -0.000000 2.446391 0.411601 -0.712913 -0.567749 39 186 33
0.191642 0.110644 0.328458 -0.500000 -0.866025 -0.000000 105 45 9
0.000000 -0.221289 0.328458 -0.500000 0.866025 0.000000 105 45 9
-0.191642 0.110644 0.328458 1.000000 0.000000 0.000000 105 45 9
0.191642 -0.110644 0.328458 -1.000000 -0.000000 -0.000000 105 45 9
-0.191642 -0.110644 0.328458 0.500000 0.866025 0.000000 104 46 9
0.000000 0.221289 0.328458 0.500000 -0.866025 0.000000 105 45 9
0.000000 0.568310 1.110636 0.461052 -0.798565 -0.386943 39 186 33
0.492171 0.284155 1.110636 -0.461052 -0.798565 -0.386943 39 186 33
0.000000 -0.568310 1.110636 -0.461052 0.798565 -0.386943 39 186 33
-0.492171 0.284155 1.110636 0.922104 0.000000 -0.386943 39 186 33
0.492171 -0.284155 1.110636 -0.922104 -0.000000 -0.386943 39 186 33
-0.820397 -0.473657 0.328458 0.461052 0.798565 -0.386943 39 186 33
0.691261 0.399100 1.110636 -0.438072 -0.758763 -0.482050 39 186 33
0.000000 -0.359356 1.801391 -0.438072 0.758763 -0.482050 39 186 33
-0.311211 0.179678 1.801391 0.876144 0.000000 -0.482050 39 186 33
0.311211 -0.179678 1.801391 -0.876144 -0.000000 -0.482050 39 186 33
-0.691261 -0.399100 1.110636 0.438072 0.758763 -0.482050 39 186 33
0.000000 0.359356 1.801391 0.438072 -0.758763 -0.482050 39 186 33
0.000000 -0.513664 1.801391 0.000000 0.000000 1.000000 104 207 100
3 0 1 2
3 3 4 5
3 6 7 8
3 9 10 11
3 12 13 14
3 15 16 17
3 18 19 20
3 21 22 23
3 18 24 25
3 26 27 19
3 23 27 28
3 21 24 29
3 30 31 32
3 33 34 35
3 36 37 38
3 39 40 41
3 42 43 44
3 45 46 47
3 48 49 50
3 51 52 53
3 54 55 56
3 50 57 54
3 53 58 48
3 51 55 59
3 60 61 62
3 63 64 65
3 66 67 68
3 69 70 71
3 72 73 74
3 75 76 77
3 78 79 80
3 81 82 83
3 84 85 86
3 84 79 87
3 83 88 78
3 81 85 89
3 90 91 92
3 93 94 95
3 96 97 98
3 99 100 101
3 102 103 104
3 105 106 107
3 0 108 1
3 3 109 4
3 6 110 7
3 9 111 10
3 12 112 13
3 15 113 16
3 18 26 19
3 21 29 22
3 18 20 24
3 26 28 27
3 23 22 27
3 21 25 24
3 30 114 31
3 33 115 34
3 36 116 37
3 39 117 40
3 42 118 43
3 45 119 46
3 48 58 49
3 51 59 52
3 54 57 55
3 50 49 57
3 53 52 58
3 51 56 55
3 60 120 61
3 63 121 64
3 66 122 67
3 69 123 70
3 72 124 73
3 75 125 76
3 78 88 79
3 81 89 82
3 84 87 85
3 84 80 79
3 83 126 88
3 81 86 85
