ply
format ascii 1.0
comment Created by Blender 2.78 (sub 0) - www.blender.org, source file: ''
element vertex 24
property float x
property float y
property float z
property float nx
property float ny
property float nz
property uchar red
property uchar green
property uchar blue
element face 12
property list uchar uint vertex_indices
end_header
-1.000000 -1.000000 1.000000 -1.000000 0.000000 0.000000 42 255 3
-1.000000 1.000000 -1.000000 -1.000000 0.000000 0.000000 255 2 6
-1.000000 -1.000000 -1.000000 -1.000000 0.000000 0.000000 1 2 255
-1.000000 1.000000 1.000000 0.000000 1.000000 -0.000000 255 239 7
1.000000 1.000000 -1.000000 0.000000 1.000000 -0.000000 35 255 0
-1.000000 1.000000 -1.000000 0.000000 1.000000 -0.000000 255 2 6
1.000000 1.000000 1.000000 1.000000 0.000000 -0.000000 9 30 226
1.000000 -1.000000 -1.000000 1.000000 0.000000 -0.000000 235 253 2
1.000000 1.000000 -1.000000 1.000000 0.000000 -0.000000 35 255 0
1.000000 -1.000000 1.000000 0.000000 -1.000000 0.000000 255 2 13
-1.000000 -1.000000 -1.000000 0.000000 -1.000000 0.000000 1 2 255
1.000000 -1.000000 -1.000000 0.000000 -1.000000 0.000000 236 255 2
1.000000 1.000000 -1.000000 0.000000 0.000000 -1.000000 35 255 0
-1.000000 -1.000000 -1.000000 0.000000 0.000000 -1.000000 1 2 255
-1.000000 1.000000 -1.000000 0.000000 0.000000 -1.000000 255 2 6
-1.000000 1.000000 1.000000 0.000000 0.000000 1.000000 255 239 7
1.000000 -1.000000 1.000000 0.000000 0.000000 1.000000 255 2 13
1.000000 1.000000 1.000000 0.000000 0.000000 1.000000 10 1 254
-1.000000 1.000000 1.000000 -1.000000 0.000000 0.000000 255 239 7
1.000000 1.000000 1.000000 0.000000 1.000000 -0.000000 10 1 254
1.000000 -1.000000 1.000000 1.000000 0.000000 0.000000 255 2 13
-1.000000 -1.000000 1.000000 0.000000 -1.000000 0.000000 42 255 3
1.000000 -1.000000 -1.000000 0.000000 0.000000 -1.000000 236 255 2
-1.000000 -1.000000 1.000000 0.000000 -0.000000 1.000000 42 255 3
3 0 1 2
3 3 4 5
3 6 7 8
3 9 10 11
3 12 13 14
3 15 16 17
3 0 18 1
3 3 19 4
3 6 20 7
3 9 21 10
3 12 22 13
3 15 23 16
