ply
format ascii 1.0
comment Created by Blender 2.78 (sub 0) - www.blender.org, source file: ''
element vertex 173
property float x
property float y
property float z
property float nx
property float ny
property float nz
property uchar red
property uchar green
property uchar blue
element face 108
property list uchar uint vertex_indices
end_header
0.000000 0.000000 0.000000 0.000000 -0.000000 -1.000000 112 59 28
-0.079974 0.046173 0.000000 0.000000 -0.000000 -1.000000 112 59 28
0.000000 0.092346 0.000000 0.000000 -0.000000 -1.000000 112 59 28
-0.079974 -0.046173 0.000000 0.000000 0.000000 -1.000000 112 59 28
0.000000 -0.092346 0.000000 0.000000 0.000000 -1.000000 112 59 28
0.079974 -0.046173 0.000000 0.000000 0.000000 -1.000000 112 59 28
0.079974 0.046173 0.000000 -0.000000 0.000000 -1.000000 112 59 28
0.079974 0.046173 0.000000 1.000000 -0.000000 0.000000 112 59 28
0.079974 -0.046173 0.070806 1.000000 -0.000000 0.000000 113 60 29
0.079974 -0.046173 0.000000 1.000000 -0.000000 0.000000 112 59 28
-0.079974 0.046173 0.000000 -0.500000 0.866025 0.000000 112 59 28
0.000000 0.092346 0.070806 -0.500000 0.866025 0.000000 112 59 28
0.000000 0.092346 0.000000 -0.500000 0.866025 0.000000 112 59 28
0.000000 0.092346 0.000000 0.500000 0.866025 -0.000000 112 59 28
0.079974 0.046173 0.070806 0.500000 0.866025 -0.000000 112 59 28
0.079974 0.046173 0.000000 0.500000 0.866025 -0.000000 112 59 28
-0.079974 -0.046173 0.000000 -1.000000 -0.000000 0.000000 112 59 28
-0.079974 0.046173 0.070806 -1.000000 -0.000000 0.000000 112 59 28
-0.079974 0.046173 0.000000 -1.000000 -0.000000 0.000000 112 59 28
0.000000 -0.092346 0.000000 -0.500000 -0.866025 0.000000 112 59 28
-0.079974 -0.046173 0.070806 -0.500000 -0.866025 0.000000 112 59 28
-0.079974 -0.046173 0.000000 -0.500000 -0.866025 0.000000 112 59 28
0.079974 -0.046173 0.000000 0.500000 -0.866025 0.000000 112 59 28
0.000000 -0.092346 0.070806 0.500000 -0.866025 0.000000 124 75 47
0.000000 -0.092346 0.000000 0.500000 -0.866025 0.000000 112 59 28
0.079974 0.046173 0.000000 0.000000 0.000000 0.000000 255 255 255
0.000000 0.092346 0.000000 0.000000 0.000000 0.000000 255 255 255
0.079974 0.046173 0.000000 0.000000 0.000000 0.000000 255 255 255
0.000000 0.092346 0.000000 0.000000 0.000000 0.000000 255 255 255
-0.079974 0.046173 0.000000 0.000000 0.000000 0.000000 255 255 255
0.079974 -0.046173 0.000000 0.000000 0.000000 0.000000 255 255 255
0.079974 -0.046173 0.000000 0.000000 0.000000 0.000000 255 255 255
0.000000 -0.092346 0.000000 0.000000 0.000000 0.000000 255 255 255
0.000000 -0.092346 0.000000 0.000000 0.000000 0.000000 255 255 255
-0.079974 -0.046173 0.000000 0.000000 0.000000 0.000000 255 255 255
-0.079974 -0.046173 0.000000 0.000000 0.000000 0.000000 255 255 255
-0.079974 0.046173 0.000000 0.000000 0.000000 0.000000 255 255 255
-0.079974 -0.046173 0.070806 -0.025859 0.000000 -0.999666 112 59 28
-0.335202 0.193529 0.077408 -0.025859 0.000000 -0.999666 93 227 54
-0.079974 0.046173 0.070806 -0.025859 0.000000 -0.999666 112 59 28
0.000000 -0.092346 0.070806 -0.012929 -0.022394 -0.999666 124 75 47
-0.335202 -0.193529 0.077408 -0.012929 -0.022394 -0.999666 75 223 31
-0.079974 -0.046173 0.070806 -0.012929 -0.022394 -0.999666 112 59 28
0.000000 -0.092346 0.070806 0.012929 -0.022394 -0.999666 124 75 47
0.335202 -0.193529 0.077408 0.012929 -0.022394 -0.999666 50 219 0
0.000000 -0.387058 0.077408 0.012929 -0.022394 -0.999666 54 220 5
0.079974 0.046173 0.070806 0.025859 0.000000 -0.999666 112 59 28
0.335202 -0.193529 0.077408 0.025859 0.000000 -0.999666 50 219 0
0.079974 -0.046173 0.070806 0.025859 0.000000 -0.999666 113 60 29
-0.079974 0.046173 0.070806 -0.012929 0.022394 -0.999666 112 59 28
-0.000000 0.387058 0.077408 -0.012929 0.022394 -0.999666 51 219 1
0.000000 0.092346 0.070806 -0.012929 0.022394 -0.999666 112 59 28
0.000000 0.092346 0.070806 0.012929 0.022394 -0.999666 112 59 28
0.335202 0.193529 0.077408 0.012929 0.022394 -0.999666 51 219 1
0.079974 0.046173 0.070806 0.012929 0.022394 -0.999666 112 59 28
-0.335202 -0.193529 0.077408 -0.911715 0.000000 0.410823 50 219 0
-0.202095 0.116679 0.372805 -0.911715 0.000000 0.410823 50 219 0
-0.335202 0.193529 0.077408 -0.911715 0.000000 0.410823 93 227 54
0.000000 -0.387058 0.077408 -0.455858 -0.789569 0.410823 54 220 5
-0.202095 -0.116680 0.372805 -0.455858 -0.789569 0.410823 50 219 0
-0.335202 -0.193529 0.077408 -0.455858 -0.789569 0.410823 50 219 0
0.000000 -0.387058 0.077408 0.455858 -0.789568 0.410823 54 220 5
0.202095 -0.116679 0.372805 0.455858 -0.789568 0.410823 50 219 0
0.000000 -0.233359 0.372805 0.455858 -0.789568 0.410823 50 219 0
0.335202 0.193529 0.077408 0.911715 0.000000 0.410823 51 219 1
0.202095 -0.116679 0.372805 0.911715 0.000000 0.410823 50 219 0
0.335202 -0.193529 0.077408 0.911715 0.000000 0.410823 52 219 2
-0.000000 0.387058 0.077408 -0.455858 0.789568 0.410823 52 220 3
-0.202095 0.116679 0.372805 -0.455858 0.789568 0.410823 50 219 0
-0.000000 0.233359 0.372805 -0.455858 0.789568 0.410823 50 219 0
0.335202 0.193529 0.077408 0.455858 0.789568 0.410823 51 219 1
-0.000000 0.233359 0.372805 0.455858 0.789568 0.410823 50 219 0
0.202095 0.116679 0.372805 0.455858 0.789568 0.410823 50 219 0
-0.202095 0.116679 0.372805 -0.000000 0.000000 -1.000000 50 219 0
-0.000000 0.318708 0.372805 -0.000000 0.000000 -1.000000 50 219 0
-0.000000 0.233359 0.372805 -0.000000 0.000000 -1.000000 50 219 0
0.202095 0.116679 0.372805 -0.000000 -0.000000 -1.000000 50 219 0
0.276009 0.159354 0.372805 -0.000000 -0.000000 -1.000000 52 220 2
-0.202095 -0.116680 0.372805 -0.000000 -0.000000 -1.000000 50 219 0
-0.276009 0.159354 0.372805 -0.000000 -0.000000 -1.000000 50 219 0
0.000000 -0.318708 0.372805 0.000000 0.000000 -1.000000 50 219 0
-0.276009 -0.159354 0.372805 0.000000 0.000000 -1.000000 50 219 0
0.202095 -0.116679 0.372805 0.000000 0.000000 -1.000000 50 219 0
0.000000 -0.233359 0.372805 0.000000 0.000000 -1.000000 50 219 0
0.276009 -0.159354 0.372805 0.000000 0.000000 -1.000000 50 219 0
-0.276009 0.159354 0.372805 -0.855069 -0.000000 0.518515 50 219 0
-0.105069 -0.060662 0.654699 -0.855069 -0.000000 0.518515 50 219 0
-0.105069 0.060662 0.654699 -0.855069 -0.000000 0.518515 50 219 0
0.000000 -0.318708 0.372805 -0.427534 -0.740511 0.518515 50 219 0
-0.105069 -0.060662 0.654699 -0.427534 -0.740511 0.518515 50 219 0
-0.276009 -0.159354 0.372805 -0.427534 -0.740511 0.518515 50 219 0
0.276009 -0.159354 0.372805 0.427534 -0.740511 0.518515 50 219 0
0.000000 -0.121323 0.654699 0.427534 -0.740511 0.518515 50 219 0
0.000000 -0.318708 0.372805 0.427534 -0.740511 0.518515 50 219 0
0.276009 0.159354 0.372805 0.855069 0.000000 0.518515 53 220 4
0.105069 -0.060662 0.654699 0.855069 0.000000 0.518515 50 219 0
0.276009 -0.159354 0.372805 0.855069 0.000000 0.518515 50 219 0
-0.276009 0.159354 0.372805 -0.427534 0.740511 0.518515 50 219 0
0.000000 0.121323 0.654699 -0.427534 0.740511 0.518515 50 219 0
-0.000000 0.318708 0.372805 -0.427534 0.740511 0.518515 50 219 0
0.276009 0.159354 0.372805 0.427535 0.740511 0.518515 50 219 0
0.000000 0.121323 0.654699 0.427535 0.740511 0.518515 50 219 0
0.105069 0.060662 0.654699 0.427535 0.740511 0.518515 50 219 0
0.105069 0.060662 0.654699 0.000000 0.000000 -1.000000 50 219 0
0.170742 -0.098578 0.654699 0.000000 0.000000 -1.000000 50 219 0
0.105069 -0.060662 0.654699 0.000000 0.000000 -1.000000 50 219 0
-0.105069 0.060662 0.654699 -0.000000 0.000000 -1.000000 50 219 0
0.000000 0.197156 0.654699 -0.000000 0.000000 -1.000000 50 219 0
0.000000 0.121323 0.654699 -0.000000 0.000000 -1.000000 50 219 0
0.170742 0.098578 0.654699 0.000000 0.000000 -1.000000 50 219 0
-0.105069 -0.060662 0.654699 -0.000000 -0.000000 -1.000000 50 219 0
-0.170742 0.098578 0.654699 -0.000000 -0.000000 -1.000000 50 219 0
0.000000 -0.197156 0.654699 0.000000 0.000000 -1.000000 50 219 0
-0.170742 -0.098578 0.654699 0.000000 0.000000 -1.000000 50 219 0
0.000000 -0.121323 0.654699 -0.000000 0.000000 -1.000000 50 219 0
-0.170742 0.098578 0.654699 -0.773153 -0.000000 0.634219 50 219 0
-0.170742 -0.098578 0.654699 -0.773153 -0.000000 0.634219 50 219 0
0.000000 -0.000000 0.862844 -0.773153 -0.000000 0.634219 50 219 0
-0.170742 -0.098578 0.654699 -0.386577 -0.669571 0.634219 50 219 0
0.000000 -0.197156 0.654699 -0.386577 -0.669571 0.634219 50 219 0
0.000000 -0.000000 0.862844 -0.386577 -0.669571 0.634219 50 219 0
0.000000 -0.197156 0.654699 0.386577 -0.669570 0.634219 50 219 0
0.170742 -0.098578 0.654699 0.386577 -0.669570 0.634219 50 219 0
0.000000 -0.000000 0.862844 0.386577 -0.669570 0.634219 50 219 0
0.170742 -0.098578 0.654699 0.773153 0.000000 0.634219 50 219 0
0.170742 0.098578 0.654699 0.773153 0.000000 0.634219 87 226 43
0.000000 -0.000000 0.862844 0.773153 0.000000 0.634219 50 219 0
0.000000 0.197156 0.654699 -0.386577 0.669570 0.634219 50 219 0
-0.170742 0.098578 0.654699 -0.386577 0.669570 0.634219 50 219 0
0.000000 -0.000000 0.862844 -0.386577 0.669570 0.634219 50 219 0
0.170742 0.098578 0.654699 0.386577 0.669570 0.634219 50 219 0
0.000000 0.197156 0.654699 0.386577 0.669570 0.634219 50 219 0
0.000000 -0.000000 0.862844 0.386577 0.669570 0.634219 50 219 0
0.079974 0.046173 0.070806 1.000000 -0.000000 0.000000 112 59 28
-0.079974 0.046173 0.070806 -0.500000 0.866025 0.000000 112 59 28
0.000000 0.092346 0.070806 0.500000 0.866025 0.000000 112 59 28
-0.079974 -0.046173 0.070806 -1.000000 -0.000000 -0.000000 112 59 28
0.000000 -0.092346 0.070806 -0.500000 -0.866025 -0.000000 124 75 47
0.079974 -0.046173 0.070806 0.500000 -0.866025 0.000000 113 60 29
-0.335202 -0.193529 0.077408 -0.025859 -0.000000 -0.999666 75 223 31
0.000000 -0.387058 0.077408 -0.012929 -0.022394 -0.999666 54 220 5
0.079974 -0.046173 0.070806 0.012929 -0.022394 -0.999666 113 60 29
0.335202 0.193529 0.077408 0.025859 0.000000 -0.999666 51 219 1
-0.335202 0.193529 0.077408 -0.012929 0.022394 -0.999666 93 227 54
-0.000000 0.387058 0.077408 0.012929 0.022394 -0.999666 51 219 1
-0.202095 -0.116680 0.372805 -0.911715 -0.000000 0.410823 50 219 0
0.000000 -0.387058 0.077408 -0.455857 -0.789569 0.410823 54 220 5
0.000000 -0.233359 0.372805 -0.455857 -0.789569 0.410823 50 219 0
-0.202095 -0.116680 0.372805 -0.455857 -0.789569 0.410823 50 219 0
0.335202 -0.193529 0.077408 0.455858 -0.789568 0.410823 50 219 0
0.202095 0.116679 0.372805 0.911715 -0.000000 0.410823 50 219 0
-0.335202 0.193529 0.077408 -0.455858 0.789568 0.410823 93 227 54
-0.000000 0.387058 0.077408 0.455858 0.789568 0.410823 51 219 1
-0.276009 -0.159354 0.372805 -0.855069 -0.000000 0.518515 50 219 0
0.000000 -0.121323 0.654699 -0.427534 -0.740511 0.518515 50 219 0
0.105069 -0.060662 0.654699 0.427534 -0.740511 0.518515 50 219 0
0.105069 0.060662 0.654699 0.855069 -0.000000 0.518515 50 219 0
-0.105069 0.060662 0.654699 -0.427534 0.740511 0.518515 50 219 0
0.276009 0.159354 0.372805 0.427534 0.740511 0.518515 50 219 0
-0.000000 0.318708 0.372805 0.427534 0.740511 0.518515 50 219 0
0.000000 0.121323 0.654699 0.427534 0.740511 0.518515 50 219 0
0.000000 0.092346 0.070806 0.000000 0.000000 0.000000 255 255 255
0.079974 0.046173 0.070806 0.000000 0.000000 0.000000 255 255 255
0.079974 0.046173 0.070806 0.000000 0.000000 0.000000 255 255 255
-0.079974 0.046173 0.070806 0.000000 0.000000 0.000000 255 255 255
0.000000 0.092346 0.070806 0.000000 0.000000 0.000000 255 255 255
0.079974 -0.046173 0.070806 0.000000 0.000000 0.000000 255 255 255
0.079974 -0.046173 0.070806 0.000000 0.000000 0.000000 255 255 255
0.000000 -0.092346 0.070806 0.000000 0.000000 0.000000 255 255 255
-0.079974 -0.046173 0.070806 0.000000 0.000000 0.000000 255 255 255
-0.079974 -0.046173 0.070806 0.000000 0.000000 0.000000 255 255 255
-0.079974 0.046173 0.070806 0.000000 0.000000 0.000000 255 255 255
0.000000 -0.092346 0.070806 0.000000 0.000000 0.000000 255 255 255
3 0 1 2
3 0 3 1
3 0 4 3
3 0 5 4
3 0 6 5
3 0 2 6
3 7 8 9
3 10 11 12
3 13 14 15
3 16 17 18
3 19 20 21
3 22 23 24
3 25 26 27
3 28 29 26
3 30 27 31
3 32 31 33
3 34 33 35
3 36 35 29
3 37 38 39
3 40 41 42
3 43 44 45
3 46 47 48
3 49 50 51
3 52 53 54
3 55 56 57
3 58 59 60
3 61 62 63
3 64 65 66
3 67 68 69
3 70 71 72
3 73 74 75
3 76 74 77
3 78 79 73
3 78 80 81
3 82 80 83
3 76 84 82
3 85 86 87
3 88 89 90
3 91 92 93
3 94 95 96
3 97 98 99
3 100 101 102
3 103 104 105
3 106 107 108
3 108 109 103
3 110 111 106
3 110 112 113
3 114 104 112
3 115 116 117
3 118 119 120
3 121 122 123
3 124 125 126
3 127 128 129
3 130 131 132
3 7 133 8
3 10 134 11
3 13 135 14
3 16 136 17
3 19 137 20
3 22 138 23
3 25 28 26
3 28 36 29
3 30 25 27
3 32 30 31
3 34 32 33
3 36 34 35
3 37 139 38
3 40 140 41
3 43 141 44
3 46 142 47
3 49 143 50
3 52 144 53
3 55 145 56
3 146 147 148
3 61 149 62
3 64 150 65
3 67 151 68
3 70 152 71
3 73 79 74
3 76 75 74
3 78 81 79
3 78 83 80
3 82 84 80
3 76 77 84
3 85 153 86
3 88 154 89
3 91 155 92
3 94 156 95
3 97 157 98
3 158 159 160
3 103 109 104
3 106 111 107
3 108 107 109
3 110 113 111
3 110 114 112
3 114 105 104
3 161 162 163
3 164 165 161
3 163 166 167
3 166 168 167
3 168 169 170
3 170 171 164
3 161 165 162
3 164 171 165
3 163 162 166
3 166 172 168
3 168 172 169
3 170 169 171
